# Blender 3.4.1
# www.blender.org
mtllib 동물농장  밀가루.mtl
g Weat_bag_Cylinder.008
v 3.554051 -0.516779 -0.668216
v 4.939526 -0.598596 -0.769009
v 3.555011 -0.728859 -0.474915
v 4.881384 -0.798085 -0.522290
v 3.557933 -0.823684 0.010605
v 4.630291 -0.852971 0.023866
v 3.562799 -0.765416 0.504350
v 4.591009 -0.773836 0.506938
v 3.564055 -0.562333 0.708489
v 4.688713 -0.598272 0.723330
v 3.564147 -0.326640 0.565739
v 4.795728 -0.387848 0.584676
v 3.553228 -0.160151 0.047694
v 4.901330 -0.233403 0.052980
v 3.549365 -0.262311 -0.490973
v 4.950546 -0.379970 -0.545386
v 5.407839 -0.921802 -0.709057
v 5.237653 -0.967502 -0.493304
v 5.165961 -0.978650 0.028054
v 5.235516 -0.964249 0.492830
v 5.404861 -0.927387 0.692403
v 5.596591 -0.874966 0.525182
v 5.672205 -0.850405 0.014817
v 5.578766 -0.875610 -0.501061
v 4.929174 -0.811585 0.492253
v 5.084345 -0.704018 0.733242
v 5.402249 -0.466685 0.031165
v 5.258544 -0.600511 -0.551067
v 4.974857 -0.838543 -0.528494
v 4.889843 -0.870583 0.024369
v 5.283961 -0.553257 0.601945
v 5.108085 -0.725949 -0.769781
v 5.150104 -0.883461 0.497110
v 5.554294 -0.621147 0.022988
v 5.168367 -0.887463 -0.531817
v 5.296021 -0.794145 0.736530
v 5.428051 -0.706369 -0.542632
v 5.098401 -0.922529 0.023588
v 5.477709 -0.676155 0.580746
v 5.295480 -0.799052 -0.765100
v 5.555655 -1.011212 -0.720117
v 5.291807 -1.017766 -0.512937
v 5.125731 -1.027387 0.049361
v 5.304150 -1.018759 0.644098
v 5.634480 -1.004148 0.767279
v 5.861539 -0.997263 0.516125
v 5.920680 -1.005430 0.000094
v 5.812181 -1.005168 -0.509693
v 5.782471 -1.047882 -0.846592
v 5.105715 -1.055373 -0.780213
v 5.034905 -1.066199 0.042471
v 5.232935 -1.066953 0.766386
v 5.939824 -1.041780 0.965941
v 5.991684 -1.038240 0.513588
v 6.235386 -1.065317 -0.128740
v 5.947056 -1.071038 -0.465876
v 2.803589 -0.800604 0.581593
v 2.754410 -0.425788 0.573463
v 2.803644 -0.800659 -0.581535
v 2.754468 -0.425944 -0.574409
v 2.624904 -0.758103 0.496207
v 2.606045 -0.652799 0.496175
v 2.624904 -0.758103 -0.496207
v 2.606045 -0.652799 -0.496175
v 4.832036 -0.833014 -0.655401
v 4.481555 -0.162364 -0.428428
v 4.832169 -0.833228 0.653517
v 4.481842 -0.162782 0.424016
v 2.466706 -0.811231 0.586205
v 2.458539 -0.703243 0.586205
v 2.466706 -0.811231 -0.586205
v 2.458539 -0.703243 -0.586205
v 3.224648 -0.819348 -0.565835
v 3.132713 -0.242606 0.513579
v 3.132934 -0.243275 -0.519198
v 3.224470 -0.819186 0.564695
v 4.389993 -0.146531 0.465017
v 4.740257 -0.908895 0.762766
v 4.391347 -0.149231 -0.467799
v 4.740711 -0.909801 -0.763318
v 4.741848 -0.050255 0.498559
v 5.096659 -0.835750 0.720942
v 4.741785 -0.050150 -0.499275
v 5.096637 -0.835714 -0.721085
v 3.795360 -0.220452 -0.510378
v 4.008023 -0.840376 0.638899
v 4.007878 -0.840127 -0.644484
v 3.795449 -0.220320 0.501250
v 2.812838 -0.870900 0.000123
v 2.778989 -0.613176 0.794184
v 2.745219 -0.355597 -0.000567
v 2.779067 -0.613322 -0.794628
v 2.962984 -0.810713 -0.565209
v 2.899239 -0.323099 0.540943
v 2.628440 -0.777847 -0.000000
v 2.615475 -0.705451 0.682263
v 2.602509 -0.633055 -0.000000
v 2.615475 -0.705451 -0.682263
v 2.632091 -0.631233 -0.563803
v 2.655442 -0.758999 0.563853
v 4.166418 -0.204016 -0.463789
v 4.459070 -0.839425 0.648675
v 4.415998 -0.036845 -0.002443
v 4.897803 -0.958849 -0.000705
v 4.657045 -0.498064 0.741394
v 4.656755 -0.497630 -0.744542
v 2.458773 -0.829060 -0.000000
v 2.454008 -0.760000 0.714664
v 2.449243 -0.690940 -0.000000
v 2.454008 -0.760000 -0.714664
v 3.581526 -0.831339 -0.604020
v 3.439274 -0.219282 0.511236
v 2.899409 -0.323565 -0.543866
v 2.962830 -0.810557 0.565207
v 3.178828 -0.531389 -0.745327
v 3.241759 -0.927329 -0.000150
v 3.115623 -0.134879 -0.003230
v 3.178554 -0.530818 0.741947
v 4.325080 -0.005106 -0.001600
v 4.564955 -0.527375 0.844414
v 4.806074 -1.052123 -0.000067
v 4.566199 -0.529854 -0.846081
v 4.698199 -0.035695 -0.525608
v 4.675285 0.097084 -0.000412
v 4.698172 -0.035636 0.525367
v 4.919261 -0.443016 0.838487
v 5.055848 -0.856389 0.753129
v 5.055857 -0.856409 -0.753177
v 5.163179 -0.983019 -0.000018
v 4.919203 -0.442919 -0.838917
v 4.493245 -0.096341 -0.502124
v 4.492533 -0.094916 0.500622
v 4.675418 -0.101416 -0.451787
v 4.675612 -0.101729 0.449699
v 4.852840 -0.897461 0.771513
v 5.037917 -0.829406 0.681492
v 5.037848 -0.829293 -0.682035
v 4.853080 -0.897939 -0.771811
v 3.439381 -0.219793 -0.519433
v 3.581497 -0.831372 0.600210
v 4.458885 -0.839133 -0.652995
v 4.166662 -0.204253 0.456430
v 3.901758 -0.530358 0.785232
v 3.755553 -0.104161 -0.004896
v 3.901597 -0.530279 -0.792588
v 4.047802 -0.956476 -0.002460
v 2.632091 -0.631233 0.563802
v 2.655442 -0.758999 -0.563853
v 2.627713 -0.607277 -0.000000
v 4.673252 -0.497318 -0.875662
v 4.672598 -0.496010 0.874762
v 2.931004 -0.566770 0.760753
v 4.856608 -0.465314 -0.779256
v 2.887403 -0.231962 -0.001735
v 2.659821 -0.782955 -0.000000
v 2.643767 -0.695116 -0.775263
v 2.643767 -0.695116 0.775263
v 4.920474 -1.048088 -0.000036
v 4.513809 -0.958369 -0.001875
v 5.105826 -0.965808 -0.000127
v 4.312611 -0.521525 -0.766694
v 2.435930 -0.765799 -0.000000
v 2.931227 -0.567197 -0.762215
v 2.974829 -0.902004 0.000273
v 3.412668 -0.104822 -0.004510
v 3.510372 -0.525282 0.765245
v 4.607571 0.034885 -0.001189
v 4.856789 -0.465608 0.777940
v 4.631123 0.118222 -0.000139
v 4.877006 -0.446005 0.878993
v 5.122915 -1.010287 -0.000006
v 4.877032 -0.446060 -0.879138
v 4.425376 0.054759 -0.000864
v 4.312906 -0.521888 0.760855
v 4.111708 -0.085045 -0.003964
v 3.510466 -0.525611 -0.771248
v 3.608171 -0.946071 -0.001494
vn -0.0778 -0.7230 -0.6864
vn -0.0427 -0.9872 -0.1535
vn -0.0188 -0.9902 0.1386
vn -0.0207 -0.7406 0.6717
vn 0.0098 0.5318 0.8468
vn 0.0469 0.9541 0.2959
vn -0.5418 -0.6201 0.5674
vn 0.0640 0.9754 -0.2108
vn 0.0038 0.6464 -0.7630
vn -0.9999 -0.0067 0.0091
vn 0.2918 0.8621 0.4143
vn 0.8173 0.5324 -0.2204
vn -0.6809 -0.7224 -0.1206
vn 0.5973 0.1747 0.7827
vn 0.6791 0.4078 -0.6104
vn -0.4924 -0.6890 -0.5318
vn -0.6615 -0.7390 0.1276
vn 0.8738 0.4597 0.1588
vn 0.3612 0.8930 0.2686
vn -0.0879 -0.9858 0.1432
vn -0.4428 -0.6664 -0.5998
vn 0.4447 0.6211 -0.6454
vn 0.1331 0.5184 0.8447
vn -0.1630 -0.9784 -0.1272
vn 0.4688 0.8502 -0.2394
vn -0.1527 -0.8003 0.5798
vn 0.6231 0.7555 0.2024
vn -0.2759 -0.9529 0.1259
vn -0.2635 -0.8279 -0.4952
vn 0.3780 0.7104 -0.5937
vn 0.2878 0.4780 0.8298
vn -0.2432 -0.9656 -0.0925
vn 0.6034 0.7451 -0.2841
vn -0.3082 -0.7968 0.5197
vn 0.1455 0.9867 0.0723
vn -0.9685 0.1085 0.2243
vn -0.5138 -0.6105 -0.6027
vn 0.4080 0.7564 -0.5113
vn 0.4766 0.8758 0.0766
vn -0.5470 0.1695 0.8198
vn -0.9666 -0.1396 -0.2148
vn 0.5006 0.8574 -0.1194
vn 0.0100 -0.9999 0.0015
vn -0.4076 0.9064 0.1110
vn -0.0704 0.9789 -0.1919
vn 0.2396 0.9603 -0.1429
vn 0.2296 0.9728 0.0304
vn -0.1453 0.9242 0.3532
vn -0.2411 0.9701 -0.0269
vn 0.2460 0.9616 -0.1215
vn -0.7016 0.5889 0.4012
vn -0.7024 0.7110 -0.0346
vn -0.7024 0.7110 0.0346
vn -0.0896 0.2346 0.9679
vn 0.4359 -0.5132 0.7393
vn 0.1094 0.2778 0.9544
vn -0.1971 0.9580 0.2084
vn 0.2140 -0.5981 -0.7724
vn 0.1154 0.2776 -0.9537
vn 0.4350 -0.5146 -0.7389
vn 0.0616 -0.5666 0.8217
vn -0.0801 0.6354 0.7680
vn -0.1909 0.6893 0.6989
vn 0.1935 -0.6609 0.7251
vn -0.1152 -0.3102 -0.9437
vn -0.2520 0.5827 -0.7726
vn -0.7001 0.2559 -0.6666
vn -0.5256 -0.4536 -0.7197
vn -0.3445 0.9207 -0.1836
vn -0.6057 0.7857 -0.1256
vn -0.6053 0.7862 0.1250
vn -0.3430 0.9215 0.1823
vn -0.1861 0.9271 0.3254
vn -0.1861 0.9271 -0.3254
vn -0.1394 -0.9894 0.0397
vn -0.1394 -0.9894 -0.0397
vn -0.4756 -0.8506 -0.2241
vn -0.8494 0.4926 -0.1895
vn -0.8494 0.4926 0.1895
vn -0.4756 -0.8506 0.2241
vn 0.2145 -0.5975 0.7726
vn -0.1958 0.9582 -0.2087
vn -0.0615 0.9795 0.1919
vn -0.0593 0.9795 -0.1927
vn -0.0025 -0.9838 -0.1791
vn 0.0070 -0.9827 -0.1851
vn 0.0060 -0.9828 0.1848
vn -0.0030 -0.9839 0.1788
vn -0.0206 -0.9815 0.1905
vn -0.0197 -0.9815 -0.1907
vn -0.2506 -0.9533 -0.1688
vn -0.2509 -0.9532 0.1687
vn 0.0229 -0.3771 -0.9259
vn 0.0446 0.6909 -0.7215
vn -0.0049 0.6868 -0.7268
vn 0.0381 -0.2793 -0.9595
vn -0.9465 -0.3216 0.0248
vn -0.9877 0.1550 0.0216
vn -0.9877 0.1550 -0.0216
vn -0.9465 -0.3216 -0.0248
vn -0.3302 0.9434 -0.0318
vn 0.4084 -0.8578 0.3121
vn 0.3110 -0.9499 0.0317
vn -0.3302 0.9434 0.0318
vn 0.3110 -0.9499 -0.0317
vn 0.1901 -0.6637 -0.7234
vn -0.1950 0.6869 -0.7001
vn -0.0858 0.6316 -0.7706
vn 0.0566 -0.5716 -0.8186
vn -0.1190 -0.9835 -0.1363
vn -0.0635 -0.9831 -0.1716
vn -0.0628 -0.9831 0.1720
vn -0.1188 -0.9835 0.1366
vn 0.0027 0.9753 -0.2209
vn -0.0868 0.9729 -0.2145
vn -0.0848 0.9734 0.2130
vn 0.0038 0.9755 0.2199
vn -0.0713 -0.4662 0.8818
vn -0.0047 0.6570 0.7539
vn -0.0538 0.6229 0.7804
vn -0.0781 -0.5090 0.8572
vn -0.3250 0.8915 -0.3157
vn -0.3287 0.8898 0.3165
vn -0.6794 0.6710 0.2969
vn -0.6750 0.6753 -0.2972
vn -0.2599 0.5802 0.7718
vn -0.1222 -0.3108 0.9426
vn -0.5301 -0.4538 0.7163
vn -0.7066 0.2498 0.6621
vn -0.4196 -0.8842 0.2052
vn -0.4225 -0.8830 -0.2045
vn 0.2908 -0.9061 0.3074
vn -0.0862 0.2351 -0.9681
vn -0.5064 -0.6812 -0.5287
vn -0.6482 -0.0574 -0.7593
vn -0.5586 0.8013 -0.2143
vn -0.5589 0.8011 0.2143
vn -0.6469 -0.0561 0.7605
vn -0.5025 -0.6818 0.5316
vn 0.5000 -0.8082 -0.3112
vn 0.5016 -0.8056 0.3154
vn 0.0312 -0.2788 0.9598
vn -0.0108 0.6868 0.7268
vn 0.0420 0.6923 0.7204
vn 0.0198 -0.3740 0.9272
vn -0.1215 0.9525 -0.2794
vn -0.0318 0.9704 -0.2396
vn -0.0325 0.9704 0.2395
vn -0.1238 0.9520 0.2800
vn -0.0841 -0.5148 -0.8532
vn -0.0605 0.6185 -0.7834
vn -0.0078 0.6540 -0.7565
vn -0.0742 -0.4715 -0.8787
vn -0.0518 -0.9813 -0.1851
vn -0.0304 -0.9830 -0.1809
vn -0.0299 -0.9830 0.1809
vn -0.0507 -0.9813 0.1855
vn 0.0545 -0.8573 -0.5120
vn 0.0556 -0.8568 0.5126
vn -0.3977 -0.9148 0.0706
vn -0.7021 0.5882 -0.4014
vn -0.8848 0.4633 -0.0490
vn -0.3977 -0.9148 -0.0705
vn -0.8849 0.4633 0.0489
vn 0.2895 -0.9070 -0.3059
vn 0.4084 -0.8578 -0.3121
vt 1.000000 0.500000
vt 0.000000 0.500000
vt 0.750000 0.490000
vt 1.000000 1.000000
vt 0.000000 1.000000
vt 0.875000 0.500000
vt 0.919706 0.419706
vt 0.875000 1.000000
vt 0.750000 0.500000
vt 0.990000 0.250000
vt 0.750000 1.000000
vt 0.625000 0.500000
vt 0.919706 0.080294
vt 0.625000 1.000000
vt 0.500000 0.500000
vt 0.750000 0.010000
vt 0.500000 1.000000
vt 0.375000 0.500000
vt 0.580294 0.080294
vt 0.375000 1.000000
vt 0.250000 0.500000
vt 0.510000 0.250000
vt 0.250000 1.000000
vt 0.125000 0.500000
vt 0.580294 0.419706
vt 0.125000 1.000000
vt 1.000000 1.000000
vt 0.000000 1.000000
vt 0.875000 1.000000
vt 0.750000 1.000000
vt 0.625000 1.000000
vt 0.500000 1.000000
vt 0.375000 1.000000
vt 0.250000 1.000000
vt 0.125000 1.000000
vt 0.625000 1.000000
vt 0.500000 1.000000
vt 0.250000 1.000000
vt 0.125000 1.000000
vt 0.875000 1.000000
vt 0.750000 1.000000
vt 0.375000 1.000000
vt 1.000000 1.000000
vt 0.000000 1.000000
vt 0.625000 1.000000
vt 0.250000 1.000000
vt 0.875000 1.000000
vt 0.500000 1.000000
vt 0.125000 1.000000
vt 0.750000 1.000000
vt 0.375000 1.000000
vt 1.000000 1.000000
vt 0.000000 1.000000
vt 1.000000 1.000000
vt 0.000000 1.000000
vt 0.875000 1.000000
vt 0.750000 1.000000
vt 0.625000 1.000000
vt 0.500000 1.000000
vt 0.375000 1.000000
vt 0.250000 1.000000
vt 0.125000 1.000000
vt 0.268098 0.438041
vt 1.000000 1.000000
vt 0.000000 1.000000
vt 0.396674 0.399691
vt 0.875000 1.000000
vt 0.458401 0.326287
vt 0.806191 1.000000
vt 0.429207 0.140694
vt 0.669488 1.000000
vt 0.287739 0.066817
vt 0.500000 1.000000
vt 0.175039 0.118813
vt 0.375000 1.000000
vt 0.077010 0.253265
vt 0.250000 1.000000
vt 0.080294 0.419706
vt 0.125000 1.000000
vt 0.375000 1.000000
vt 0.125000 0.750000
vt 0.625000 1.000000
vt 0.875000 0.750000
vt 0.375000 0.250000
vt 0.125000 0.500000
vt 0.625000 0.250000
vt 0.875000 0.500000
vt 0.375000 1.000000
vt 0.125000 0.750000
vt 0.625000 1.000000
vt 0.875000 0.750000
vt 0.125000 0.500000
vt 0.375000 0.250000
vt 0.625000 0.250000
vt 0.875000 0.500000
vt 0.229072 0.500000
vt 0.375000 0.354072
vt 0.625000 0.354072
vt 0.770929 0.500000
vt 0.229072 0.750000
vt 0.375000 0.895929
vt 0.625000 0.895929
vt 0.770929 0.750000
vt 0.375000 0.000000
vt 0.375000 1.000000
vt 0.125000 0.750000
vt 0.625000 1.000000
vt 0.625000 0.000000
vt 0.875000 0.750000
vt 0.125000 0.500000
vt 0.375000 0.250000
vt 0.625000 0.250000
vt 0.875000 0.500000
vt 0.375000 0.272548
vt 0.147548 0.500000
vt 0.852452 0.750000
vt 0.625000 0.977452
vt 0.852452 0.500000
vt 0.625000 0.272548
vt 0.375000 0.977452
vt 0.147548 0.750000
vt 0.625000 0.895929
vt 0.770929 0.750000
vt 0.375000 0.895929
vt 0.229072 0.750000
vt 0.625000 0.354072
vt 0.770929 0.500000
vt 0.375000 0.354072
vt 0.229072 0.500000
vt 0.770929 0.750919
vt 0.622059 0.895929
vt 0.377942 0.895929
vt 0.229072 0.750919
vt 0.770929 0.499081
vt 0.622058 0.354072
vt 0.229072 0.499081
vt 0.377942 0.354072
vt 0.811690 0.500000
vt 0.625000 0.313310
vt 0.375000 0.936690
vt 0.188310 0.750000
vt 0.375000 0.313310
vt 0.188310 0.500000
vt 0.625000 0.936690
vt 0.811690 0.750000
vt 0.128132 0.625000
vt 0.500000 0.996868
vt 0.871868 0.625000
vt 0.500000 0.253132
vt 0.375000 0.261274
vt 0.136274 0.500000
vt 0.625000 0.988726
vt 0.863726 0.750000
vt 0.125000 0.625000
vt 0.500000 1.000000
vt 0.875000 0.625000
vt 0.500000 0.250000
vt 0.625000 0.250000
vt 0.875000 0.500000
vt 0.375000 1.000000
vt 0.125000 0.750000
vt 0.625000 0.333691
vt 0.791309 0.500000
vt 0.208691 0.750000
vt 0.375000 0.916309
vt 0.770928 0.625000
vt 0.223410 0.625000
vt 0.500000 0.895929
vt 0.500000 0.348410
vt 0.375000 0.125000
vt 0.125000 0.625000
vt 0.500000 0.000000
vt 0.500000 1.000000
vt 0.625000 0.125000
vt 0.875000 0.625000
vt 0.500000 0.215278
vt 0.375000 0.292929
vt 0.167929 0.500000
vt 0.832071 0.750000
vt 0.625000 0.957071
vt 0.863726 0.500000
vt 0.625000 0.261274
vt 0.375000 0.988726
vt 0.136274 0.750000
vt 0.500000 0.275078
vt 0.150078 0.625000
vt 0.849922 0.625000
vt 0.500000 0.974922
vt 0.770928 0.625000
vt 0.500000 0.895929
vt 0.229072 0.625000
vt 0.500000 0.354072
vt 0.770928 0.499541
vt 0.623529 0.354072
vt 0.770929 0.625000
vt 0.623529 0.895929
vt 0.770929 0.750460
vt 0.500000 0.895929
vt 0.376471 0.895929
vt 0.229072 0.750460
vt 0.229072 0.499541
vt 0.376471 0.354072
vt 0.229072 0.625000
vt 0.500000 0.354072
vt 0.625000 0.354072
vt 0.770928 0.500000
vt 0.625000 0.895929
vt 0.770928 0.750000
vt 0.623529 0.354072
vt 0.770928 0.499541
vt 0.770929 0.750460
vt 0.623529 0.895929
vt 0.229072 0.750000
vt 0.375000 0.895929
vt 0.229072 0.750460
vt 0.376471 0.895929
vt 0.376471 0.354072
vt 0.229072 0.499541
vt 0.375000 0.354072
vt 0.229072 0.500000
vt 0.832071 0.500000
vt 0.625000 0.292929
vt 0.375000 0.957071
vt 0.167929 0.750000
vt 0.208691 0.500000
vt 0.375000 0.333691
vt 0.625000 0.916309
vt 0.791309 0.750000
vt 0.500000 0.936690
vt 0.811690 0.625000
vt 0.500000 0.313310
vt 0.188310 0.625000
vt 0.625000 1.000000
vt 0.875000 0.750000
vt 0.375000 0.250000
vt 0.125000 0.500000
vt 0.875000 0.625000
vt 0.500000 0.354072
vt 0.500000 0.895929
vt 0.500000 0.988160
vt 0.500000 0.353505
vt 0.863160 0.625000
vt 0.125000 0.625000
vt 0.500000 0.250000
vt 0.500000 1.000000
vt 0.229072 0.625000
vt 0.208125 0.625000
vt 0.228505 0.625000
vt 0.500000 0.333125
vt 0.500000 0.121528
vt 0.500000 0.261840
vt 0.136840 0.625000
vt 0.831818 0.625000
vt 0.500000 0.956818
vt 0.770929 0.625000
vt 0.500000 0.895929
vt 0.770929 0.625000
vt 0.500000 0.895929
vt 0.229072 0.625000
vt 0.500000 0.354072
vt 0.770929 0.625000
vt 0.500000 0.916309
vt 0.791309 0.625000
vt 0.500000 0.293182
vt 0.168182 0.625000
s 0
usemtl Material.009
f 1/1/1 2/4/1 4/8/1 3/6/1
f 3/6/2 4/8/2 6/11/2 5/9/2
f 5/9/3 6/11/3 8/14/3 7/12/3
f 7/12/4 8/14/4 10/17/4 9/15/4
f 9/15/5 10/17/5 12/20/5 11/18/5
f 11/18/6 12/20/6 14/23/6 13/21/6
f 36/48/7 33/45/7 20/31/7 21/32/7
f 13/21/8 14/23/8 16/26/8 15/24/8
f 15/24/9 16/26/9 2/5/9 1/2/9
f 1/3/10 3/7/10 5/10/10 7/13/10 9/16/10 11/19/10 13/22/10 15/25/10
f 22/33/11 21/32/11 45/59/11 46/60/11
f 37/49/12 34/46/12 23/34/12 24/35/12
f 38/50/13 35/47/13 18/29/13 19/30/13
f 39/51/14 36/48/14 21/32/14 22/33/14
f 40/53/15 37/49/15 24/35/15 17/28/15
f 35/47/16 40/52/16 17/27/16 18/29/16
f 33/45/17 38/50/17 19/30/17 20/31/17
f 34/46/18 39/51/18 22/33/18 23/34/18
f 14/23/19 12/20/19 31/42/19 27/38/19
f 8/14/20 6/11/20 30/41/20 25/36/20
f 4/8/21 2/4/21 32/43/21 29/40/21
f 2/5/22 16/26/22 28/39/22 32/44/22
f 12/20/23 10/17/23 26/37/23 31/42/23
f 6/11/24 4/8/24 29/40/24 30/41/24
f 16/26/25 14/23/25 27/38/25 28/39/25
f 10/17/26 8/14/26 25/36/26 26/37/26
f 27/38/27 31/42/27 39/51/27 34/46/27
f 25/36/28 30/41/28 38/50/28 33/45/28
f 29/40/29 32/43/29 40/52/29 35/47/29
f 32/44/30 28/39/30 37/49/30 40/53/30
f 31/42/31 26/37/31 36/48/31 39/51/31
f 30/41/32 29/40/32 35/47/32 38/50/32
f 28/39/33 27/38/33 34/46/33 37/49/33
f 26/37/34 25/36/34 33/45/34 36/48/34
f 46/60/35 45/59/35 53/73/35 54/75/35
f 20/31/36 19/30/36 43/57/36 44/58/36
f 18/29/37 17/27/37 41/54/37 42/56/37
f 17/28/38 24/35/38 48/62/38 41/55/38
f 23/34/39 22/33/39 46/60/39 47/61/39
f 21/32/40 20/31/40 44/58/40 45/59/40
f 19/30/41 18/29/41 42/56/41 43/57/41
f 24/35/42 23/34/42 47/61/42 48/62/42
f 50/66/43 49/63/43 56/78/43 55/76/43 54/74/43 53/72/43 52/70/43 51/68/43
f 44/58/44 43/57/44 51/69/44 52/71/44
f 42/56/45 41/54/45 49/64/45 50/67/45
f 41/55/46 48/62/46 56/79/46 49/65/46
f 47/61/47 46/60/47 54/75/47 55/77/47
f 45/59/48 44/58/48 52/71/48 53/73/48
f 43/57/49 42/56/49 50/67/49 51/69/49
f 48/62/50 47/61/50 55/77/50 56/79/50
usemtl Material.003
f 58/82/51 147/233/51 157/245/51 90/147/51
f 149/237/52 99/159/52 64/95/52 97/156/52
f 147/234/53 149/237/53 97/156/53 62/91/53
f 128/202/54 172/260/54 150/238/54 138/219/54
f 150/238/55 131/205/55 79/126/55 122/192/55
f 138/219/56 150/238/56 122/192/56 80/128/56
f 158/246/57 171/259/57 128/201/57 138/220/57
f 125/196/58 170/258/58 151/239/58 132/207/58
f 151/239/59 135/214/59 78/124/59 120/190/59
f 132/207/60 151/239/60 120/190/60 77/122/60
f 76/120/61 118/188/61 152/240/61 114/183/61
f 118/188/62 74/117/62 94/152/62 152/240/62
f 152/240/63 94/152/63 58/82/63 90/147/63
f 114/183/64 152/240/64 90/147/64 57/80/64
f 65/97/65 106/169/65 153/241/65 137/217/65
f 106/169/66 66/98/66 133/209/66 153/241/66
f 153/241/67 133/209/67 83/135/67 130/204/67
f 137/217/68 153/241/68 130/204/68 84/137/68
f 75/118/69 113/181/69 154/242/69 117/187/69
f 113/181/70 60/87/70 91/148/70 154/242/70
f 154/242/71 91/148/71 58/83/71 94/153/71
f 117/187/72 154/242/72 94/153/72 74/116/72
f 62/90/73 70/107/73 108/173/73 96/155/73
f 98/157/74 110/176/74 72/112/74 64/94/74
f 155/243/75 100/161/75 61/89/75 95/154/75
f 148/236/76 155/243/76 95/154/76 63/92/76
f 156/244/77 148/235/77 63/93/77 98/157/77
f 99/158/78 156/244/78 98/157/78 64/94/78
f 157/245/79 147/233/79 62/90/79 96/155/79
f 100/160/80 157/245/80 96/155/80 61/88/80
f 150/238/81 172/260/81 123/194/81 131/205/81
f 127/200/82 171/259/82 158/246/82 135/213/82
f 158/246/83 138/220/83 80/129/83 121/191/83
f 135/213/84 158/246/84 121/191/84 78/125/84
f 87/143/85 141/225/85 159/247/85 146/232/85
f 141/225/86 65/96/86 104/167/86 159/247/86
f 159/247/87 104/167/87 67/100/87 102/164/87
f 146/232/88 159/247/88 102/164/88 86/141/88
f 67/100/89 104/167/89 160/248/89 136/215/89
f 104/167/90 65/96/90 137/218/90 160/248/90
f 160/248/91 137/218/91 84/136/91 129/203/91
f 136/215/92 160/248/92 129/203/92 82/133/92
f 87/142/93 145/231/93 161/249/93 141/226/93
f 145/231/94 85/139/94 101/162/94 161/249/94
f 161/249/95 101/162/95 66/98/95 106/169/95
f 141/226/96 161/249/96 106/169/96 65/97/96
f 69/104/97 108/172/97 162/250/97 107/170/97
f 108/172/98 70/108/98 109/174/98 162/250/98
f 162/250/99 109/174/99 72/112/99 110/176/99
f 107/170/100 162/250/100 110/176/100 71/111/100
f 72/113/101 109/175/101 97/156/101 64/95/101
f 96/155/102 108/173/102 69/105/102 61/88/102
f 69/106/103 107/171/103 95/154/103 61/89/103
f 97/156/104 109/175/104 70/109/104 62/91/104
f 95/154/105 107/171/105 71/110/105 63/92/105
f 59/84/106 92/149/106 163/251/106 93/150/106
f 92/149/107 60/86/107 113/182/107 163/251/107
f 163/251/108 113/182/108 75/119/108 115/185/108
f 93/150/109 163/251/109 115/185/109 73/114/109
f 59/85/110 93/151/110 164/252/110 89/146/110
f 93/151/111 73/115/111 116/186/111 164/252/111
f 164/252/112 116/186/112 76/121/112 114/184/112
f 89/146/113 164/252/113 114/184/113 57/81/113
f 85/138/114 139/221/114 165/253/114 144/230/114
f 139/221/115 75/118/115 117/187/115 165/253/115
f 165/253/116 117/187/116 74/116/116 112/179/116
f 144/230/117 165/253/117 112/179/117 88/145/117
f 86/140/118 143/229/118 166/254/118 140/223/118
f 143/229/119 88/144/119 112/180/119 166/254/119
f 166/254/120 112/180/120 74/117/120 118/188/120
f 140/223/121 166/254/121 118/188/121 76/120/121
f 66/99/122 103/166/122 167/255/122 133/210/122
f 103/166/123 68/103/123 134/211/123 167/255/123
f 167/255/124 134/211/124 81/130/124 124/195/124
f 133/210/125 167/255/125 124/195/125 83/134/125
f 68/102/126 105/168/126 168/256/126 134/212/126
f 105/168/127 67/101/127 136/216/127 168/256/127
f 168/256/128 136/216/128 82/132/128 126/198/128
f 134/212/129 168/256/129 126/198/129 81/131/129
f 83/134/130 124/195/130 169/257/130 123/193/130
f 124/195/131 81/130/131 125/197/131 169/257/131
f 169/257/132 173/261/132 131/206/132 123/193/132
f 170/258/133 127/199/133 135/214/133 151/239/133
f 81/131/134 126/198/134 170/258/134 125/196/134
f 126/198/135 82/132/135 127/199/135 170/258/135
f 171/259/136 127/200/136 82/133/136 129/203/136
f 128/201/137 171/259/137 129/203/137 84/136/137
f 172/260/138 128/202/138 84/137/138 130/204/138
f 123/194/139 172/260/139 130/204/139 83/135/139
f 173/261/140 132/208/140 77/123/140 119/189/140
f 131/206/141 173/261/141 119/189/141 79/127/141
f 67/101/142 105/168/142 174/262/142 102/165/142
f 105/168/143 68/102/143 142/227/143 174/262/143
f 174/262/144 142/227/144 88/144/144 143/229/144
f 102/165/145 174/262/145 143/229/145 86/140/145
f 66/99/146 101/163/146 175/263/146 103/166/146
f 101/163/147 85/138/147 144/230/147 175/263/147
f 175/263/148 144/230/148 88/145/148 142/228/148
f 103/166/149 175/263/149 142/228/149 68/103/149
f 73/114/150 115/185/150 176/264/150 111/177/150
f 115/185/151 75/119/151 139/222/151 176/264/151
f 176/264/152 139/222/152 85/139/152 145/231/152
f 111/177/153 176/264/153 145/231/153 87/142/153
f 73/115/154 111/178/154 177/265/154 116/186/154
f 111/178/155 87/143/155 146/232/155 177/265/155
f 177/265/156 146/232/156 86/141/156 140/224/156
f 116/186/157 177/265/157 140/224/157 76/121/157
f 59/84/158 148/235/158 156/244/158 92/149/158
f 90/147/159 157/245/159 100/160/159 57/80/159
f 57/81/160 100/161/160 155/243/160 89/146/160
f 92/149/161 156/244/161 99/158/161 60/86/161
f 60/87/162 99/159/162 149/237/162 91/148/162
f 89/146/163 155/243/163 148/236/163 59/85/163
f 91/148/164 149/237/164 147/234/164 58/83/164
f 125/197/165 132/208/165 173/261/165 169/257/165
f 63/93/166 71/111/166 110/176/166 98/157/166
