# Blender 3.4.1
# www.blender.org
mtllib Dirt.mtl
o Plane
v -1.000000 -0.120370 1.000000
v 1.000000 -0.135185 1.000000
v -1.000000 -0.105556 -1.000000
v 1.000000 -0.150000 -1.000000
v -1.000000 0.050000 -0.666667
v -1.000000 -0.061111 -0.333333
v -1.000000 -0.150000 0.000000
v -1.000000 -0.083333 0.333333
v -1.000000 -0.150000 0.666667
v -0.666667 -0.061111 1.000000
v -0.333333 -0.150000 1.000000
v 0.000000 -0.120370 1.000000
v 0.333333 -0.061111 1.000000
v 0.666667 -0.016667 1.000000
v 1.000000 -0.150000 0.666667
v 1.000000 -0.150000 0.333333
v 1.000000 -0.135185 -0.000000
v 1.000000 0.050000 -0.333333
v 1.000000 -0.016667 -0.666667
v 0.666667 -0.135185 -1.000000
v 0.333333 -0.150000 -1.000000
v -0.000000 -0.135185 -1.000000
v -0.333333 -0.083333 -1.000000
v -0.666667 -0.135185 -1.000000
v -0.666667 -0.127778 0.666667
v -0.666667 -0.061111 0.333333
v -0.666667 -0.150000 -0.000000
v -0.666667 -0.150000 -0.333333
v -0.666667 -0.150000 -0.666667
v -0.333333 -0.150000 0.666667
v -0.333333 -0.127778 0.333333
v -0.333333 -0.150000 -0.000000
v -0.333333 -0.127778 -0.333333
v -0.333333 -0.150000 -0.666667
v 0.000000 -0.150000 0.666667
v 0.000000 -0.150000 0.333333
v -0.000000 -0.061111 -0.000000
v -0.000000 -0.150000 -0.333333
v -0.000000 -0.105556 -0.666667
v 0.333333 -0.150000 0.666667
v 0.333333 -0.150000 0.333333
v 0.333333 -0.150000 -0.000000
v 0.333333 -0.016667 -0.333333
v 0.333333 -0.061111 -0.666667
v 0.666667 -0.150000 0.666667
v 0.666667 -0.150000 0.333333
v 0.666667 -0.061111 -0.000000
v 0.666667 -0.150000 -0.333333
v 0.666667 -0.150000 -0.666667
vn -0.1724 0.9698 -0.1724
vn 0.3194 0.9272 -0.1957
vn -0.0770 0.9897 0.1210
vn 0.0111 0.9984 0.0555
vn -0.0437 0.9836 -0.1749
vn 0.1098 0.9879 -0.1098
vn -0.1201 0.9826 -0.1419
vn -0.0652 0.9785 0.1957
vn -0.0324 0.9733 -0.2271
vn 0.1310 0.9827 0.1310
vn 0.3930 0.9070 0.1512
vn 0.1636 0.9816 -0.0982
vn 0.0982 0.9816 -0.1636
vn -0.0333 0.9989 0.0333
vn -0.0333 0.9989 -0.0333
vn -0.0444 0.9980 -0.0444
vn 0.0333 0.9989 0.0333
vn -0.0990 0.9901 0.0990
vn -0.0990 0.9901 -0.0990
vn -0.0872 0.9808 -0.1744
vn -0.0000 1.0000 -0.0000
vn -0.0664 0.9956 0.0664
vn -0.2577 0.9662 -0.0000
vn -0.0631 0.9468 -0.3156
vn -0.1310 0.9827 0.1310
vn 0.0664 0.9956 0.0664
vn 0.3156 0.9468 -0.0631
vn 0.1710 0.9618 -0.2137
vn 0.1091 0.9822 0.1528
vn -0.1838 0.9729 0.1405
vn -0.4454 0.8909 -0.0891
vt 0.000000 0.000000
vt 1.000000 0.000000
vt 0.000000 1.000000
vt 1.000000 1.000000
vt 0.000000 0.833333
vt 0.000000 0.666667
vt 0.000000 0.500000
vt 0.000000 0.333333
vt 0.000000 0.166667
vt 0.166667 0.000000
vt 0.333333 0.000000
vt 0.500000 0.000000
vt 0.666667 0.000000
vt 0.833333 0.000000
vt 1.000000 0.166667
vt 1.000000 0.333333
vt 1.000000 0.500000
vt 1.000000 0.666667
vt 1.000000 0.833333
vt 0.833333 1.000000
vt 0.666667 1.000000
vt 0.500000 1.000000
vt 0.333333 1.000000
vt 0.166667 1.000000
vt 0.166667 0.166667
vt 0.166667 0.333333
vt 0.166667 0.500000
vt 0.166667 0.666667
vt 0.166667 0.833333
vt 0.333333 0.166667
vt 0.333333 0.333333
vt 0.333333 0.500000
vt 0.333333 0.666667
vt 0.333333 0.833333
vt 0.500000 0.166667
vt 0.500000 0.333333
vt 0.500000 0.500000
vt 0.500000 0.666667
vt 0.500000 0.833333
vt 0.666667 0.166667
vt 0.666667 0.333333
vt 0.666667 0.500000
vt 0.666667 0.666667
vt 0.666667 0.833333
vt 0.833333 0.166667
vt 0.833333 0.333333
vt 0.833333 0.500000
vt 0.833333 0.666667
vt 0.833333 0.833333
s 0
f 49/49/1 19/19/1 4/4/1 20/20/1
f 5/5/2 29/29/2 24/24/2 3/3/2
f 29/29/3 34/34/3 23/23/3 24/24/3
f 34/34/4 39/39/4 22/22/4 23/23/4
f 39/39/5 44/44/5 21/21/5 22/22/5
f 44/44/6 49/49/6 20/20/6 21/21/6
f 1/1/7 10/10/7 25/25/7 9/9/7
f 9/9/8 25/25/8 26/26/8 8/8/8
f 8/8/9 26/26/9 27/27/9 7/7/9
f 7/7/10 27/27/10 28/28/10 6/6/10
f 6/6/11 28/28/11 29/29/11 5/5/11
f 10/10/12 11/11/12 30/30/12 25/25/12
f 25/25/10 30/30/10 31/31/10 26/26/10
f 26/26/13 31/31/13 32/32/13 27/27/13
f 27/27/14 32/32/14 33/33/14 28/28/14
f 28/28/15 33/33/15 34/34/15 29/29/15
f 11/11/16 12/12/16 35/35/16 30/30/16
f 30/30/17 35/35/17 36/36/17 31/31/17
f 31/31/18 36/36/18 37/37/18 32/32/18
f 32/32/19 37/37/19 38/38/19 33/33/19
f 33/33/14 38/38/14 39/39/14 34/34/14
f 12/12/20 13/13/20 40/40/20 35/35/20
f 35/35/21 40/40/21 41/41/21 36/36/21
f 36/36/10 41/41/10 42/42/10 37/37/10
f 37/37/22 42/42/22 43/43/22 38/38/22
f 38/38/23 43/43/23 44/44/23 39/39/23
f 13/13/24 14/14/24 45/45/24 40/40/24
f 40/40/21 45/45/21 46/46/21 41/41/21
f 41/41/25 46/46/25 47/47/25 42/42/25
f 42/42/26 47/47/26 48/48/26 43/43/26
f 43/43/27 48/48/27 49/49/27 44/44/27
f 14/14/28 2/2/28 15/15/28 45/45/28
f 45/45/21 15/15/21 16/16/21 46/46/21
f 46/46/29 16/16/29 17/17/29 47/47/29
f 47/47/30 17/17/30 18/18/30 48/48/30
f 48/48/31 18/18/31 19/19/31 49/49/31
